<svg width="133" height="122" viewBox="0 0 133 122" fill="none" xmlns="http://www.w3.org/2000/svg">
<g clip-path="url(#clip0_8059_161)">
<path d="M81.5951 47.9844C80.396 47.9844 79.6895 48.5932 79.6895 49.9485V55.1531C79.6895 56.508 80.396 57.1168 81.5951 57.1168C82.7942 57.1168 83.5218 56.508 83.5218 55.1531V49.9485C83.5215 48.5932 82.7942 47.9844 81.5951 47.9844Z" fill="black"/>
<path d="M121.172 20.6392H117.614C117.614 11.7711 110.854 6.8291 103.674 6.8291C96.5904 6.8291 89.7336 11.6715 89.7336 20.6392H43.2666C43.2666 11.7711 36.5068 6.8291 29.3266 6.8291C22.2433 6.8291 15.3865 11.6715 15.3865 20.6392H11.8277C5.30598 20.6392 0 25.5063 0 31.4889V75.582C0 81.5645 5.30598 86.4316 11.8279 86.4316H15.3865V110.521C15.3865 113.089 17.656 115.171 20.4555 115.171H38.1973C40.9968 115.171 43.2664 113.089 43.2664 110.521V86.4316H89.7334V110.521C89.7334 113.089 92.0029 115.171 94.8024 115.171H112.544C115.344 115.171 117.613 113.089 117.613 110.521V86.4316H121.172C127.694 86.4316 133 81.5645 133 75.582V31.4889C133 25.5063 127.694 20.6392 121.172 20.6392ZM33.1282 20.6392H25.5246C25.5246 14.6064 33.1282 14.5242 33.1282 20.6392ZM33.1282 105.871H25.5246V86.4316H33.1282V105.871ZM34.5318 46.7863L30.2713 58.7662C29.7424 60.1804 26.2296 60.0746 25.9034 58.7662L24.7903 54.1116L23.6766 58.7662C23.3457 60.0932 19.7866 60.1611 19.3092 58.7662L15.0485 46.7863C14.6074 45.5756 17.8633 44.6792 18.2387 45.883L21.493 55.958L23.1844 49.32C23.4436 48.2494 26.1369 48.2501 26.3959 49.32L28.0872 55.958L31.3416 45.883C31.7151 44.6821 34.9676 45.5708 34.5318 46.7863ZM44.0608 51.3032C45.3811 51.3032 45.4219 53.66 44.0608 53.66H40.8493V56.9988H46.5872C47.911 56.9988 47.9523 59.6697 46.5872 59.6697H38.9654C38.2376 59.6697 37.5092 59.3554 37.5092 58.7271V46.2561C37.5092 45.6278 38.2371 45.3135 38.9654 45.3135H46.5872C47.9531 45.3135 47.9102 47.9844 46.5872 47.9844H40.8493V51.3032H44.0608ZM58.9841 59.6695H52.2184C51.4906 59.6695 50.7622 59.3552 50.7622 58.7269V46.2361C50.7622 45.588 51.5973 45.3133 52.432 45.3133C53.2674 45.3133 54.102 45.5882 54.102 46.2361V56.9984H58.9833C60.2691 56.9986 60.2691 59.6695 58.9841 59.6695ZM67.8917 57.1163C69.6043 57.1163 69.7119 55.9185 69.7758 55.1524C69.8399 54.4259 70.5683 54.2293 71.4245 54.2293C72.5807 54.2293 73.1159 54.5043 73.1159 55.6828C73.1159 60.8714 62.6036 61.7585 62.6036 55.1526V49.9483C62.6036 43.3279 73.1159 44.3115 73.1159 49.2218C73.1159 50.4001 72.5805 50.6751 71.4461 50.6751C70.5468 50.6751 69.8186 50.459 69.776 49.7522C69.7545 49.2416 69.6906 47.9846 67.8707 47.9846C66.6503 47.9846 65.9437 48.613 65.9437 49.9488V55.1531C65.9435 56.488 66.65 57.1163 67.8917 57.1163ZM86.8619 55.1526C86.8619 58.5303 84.5495 59.7872 81.5951 59.7872C78.6406 59.7872 76.3492 58.5303 76.3492 55.1526V49.9481C76.3492 46.5702 78.64 45.313 81.5951 45.313C84.5495 45.313 86.8619 46.57 86.8619 49.9481V55.1526ZM96.0906 54.5831L94.0569 51.1657V58.7271C94.0569 59.984 90.7166 59.984 90.7166 58.7271V46.8452C90.7166 45.7257 91.5517 45.3135 92.3866 45.3135C93.5852 45.3135 94.0992 45.4312 94.977 46.8452L97.1824 50.3803L99.3876 46.8452C100.266 45.431 100.779 45.3135 101.978 45.3135C102.834 45.3135 103.648 45.7262 103.648 46.8452V58.7271C103.648 59.984 100.308 59.984 100.308 58.7271V51.3623L98.2524 54.5831C97.7747 55.3256 96.5405 55.3742 96.0906 54.5831ZM107.475 105.871H99.8718V86.4316H107.475V105.871ZM99.8715 20.6392C99.8715 14.6064 107.475 14.5244 107.475 20.6392H99.8715ZM114.226 51.3032C115.546 51.3032 115.587 53.66 114.226 53.66H111.014V56.9988H116.752C118.076 56.9988 118.117 59.6697 116.752 59.6697H109.131C108.403 59.6697 107.674 59.3554 107.674 58.7271V46.2561C107.674 45.6278 108.402 45.3135 109.131 45.3135H116.752C118.118 45.3135 118.076 47.9844 116.752 47.9844H111.014V51.3032H114.226Z" fill="black"/>
</g>
<defs>
<clipPath id="clip0_8059_161">
<rect width="133" height="122" fill="white"/>
</clipPath>
</defs>
</svg>
